<?xml version="1.0" encoding="UTF-8"?>
<svg xmlns="http://www.w3.org/2000/svg" xmlns:xlink="http://www.w3.org/1999/xlink" width="768.42pt" height="283.47pt" viewBox="0 0 768.42 283.47" version="1.1">
<defs>
<clipPath id="clip1">
  <path d="M 482 0 L 768.421875 0 L 768.421875 283.46875 L 482 283.46875 Z M 482 0 "/>
</clipPath>
</defs>
<g id="surface1">
<path style=" stroke:none;fill-rule:nonzero;fill:rgb(36.099243%,14.099121%,50.999451%);fill-opacity:1;" d="M 128.179688 199.546875 L 119.492188 199.546875 L 119.492188 202.472656 C 119.488281 214.109375 119.515625 225.746094 119.445313 237.382813 C 119.441406 238.332031 119.101563 239.71875 118.433594 240.160156 C 111.605469 244.628906 100.066406 244.847656 93.957031 240.363281 C 90.128906 237.554688 89.511719 232.824219 92.511719 229.160156 C 94.554688 226.664063 97.191406 225.140625 100.40625 224.777344 C 103.101563 224.472656 105.8125 224.308594 108.5 224.085938 L 108.5 216.480469 C 106.359375 216.480469 104.359375 216.613281 102.382813 216.445313 C 99.832031 216.230469 97.25 215.964844 94.773438 215.359375 C 92.804688 214.882813 91.703125 213.175781 91.773438 211.191406 C 91.847656 209.199219 93.105469 207.59375 95.101563 207.300781 C 97.625 206.929688 100.222656 206.882813 102.777344 206.96875 C 104.695313 207.035156 106.597656 207.535156 108.652344 207.867188 C 108.652344 205.453125 108.753906 203.441406 108.59375 201.449219 C 108.546875 200.835938 107.910156 199.9375 107.347656 199.753906 C 100.757813 197.601563 94.3125 197.972656 88.371094 201.691406 C 80.984375 206.308594 80.960938 215.082031 88.164063 220.042969 C 88.558594 220.3125 88.917969 220.640625 89.515625 221.117188 C 88.675781 221.796875 87.984375 222.359375 87.289063 222.917969 C 82.5625 226.722656 80.570313 232.960938 82.386719 238.667969 C 84.238281 244.484375 88.554688 247.863281 94.074219 249.835938 C 99.246094 251.683594 104.617188 251.890625 110.054688 251.457031 C 116.328125 250.960938 121.980469 248.960938 126.566406 244.582031 C 127.507813 243.683594 128.210938 242.042969 128.222656 240.734375 C 128.34375 227.84375 128.300781 214.949219 128.289063 202.058594 C 128.289063 201.242188 128.21875 200.429688 128.179688 199.546875 "/>
<path style=" stroke:none;fill-rule:nonzero;fill:rgb(36.099243%,14.099121%,50.999451%);fill-opacity:1;" d="M 186.1875 232.070313 C 185.347656 231.550781 185.117188 231.128906 184.960938 230.683594 C 181.871094 221.964844 178.78125 213.25 175.714844 204.523438 C 173.875 199.285156 173.894531 199.332031 168.449219 199.3125 C 166.890625 199.308594 166.148438 199.722656 165.617188 201.304688 C 162.394531 210.863281 159.035156 220.371094 155.695313 229.886719 C 155.425781 230.664063 154.988281 231.382813 154.296875 232.8125 C 151.105469 221.128906 148.132813 210.253906 145.183594 199.445313 L 136.585938 199.445313 C 136.660156 200.195313 136.644531 200.699219 136.769531 201.167969 C 140.882813 216.347656 145 231.53125 149.148438 246.703125 C 150.3125 250.953125 150.363281 250.855469 154.675781 250.957031 C 156.429688 251 157.308594 250.527344 157.894531 248.753906 C 160.535156 240.761719 163.335938 232.824219 166.105469 224.878906 C 167.269531 221.542969 168.5 218.230469 169.703125 214.910156 C 170.671875 215.703125 171.035156 216.492188 171.324219 217.308594 C 174.714844 226.984375 178.097656 236.664063 181.480469 246.339844 C 183.105469 250.988281 183.105469 250.90625 187.929688 250.964844 C 189.617188 250.984375 190.207031 250.34375 190.613281 248.824219 C 193.902344 236.519531 197.277344 224.242188 200.605469 211.949219 C 201.710938 207.875 202.757813 203.78125 203.886719 199.492188 L 195.082031 199.492188 C 192.097656 210.433594 189.144531 221.253906 186.1875 232.070313 "/>
<path style=" stroke:none;fill-rule:nonzero;fill:rgb(36.099243%,14.099121%,50.999451%);fill-opacity:1;" d="M 321.539063 201.679688 C 321.53125 211.308594 321.328125 220.941406 321.605469 230.5625 C 321.785156 236.890625 319.035156 240.5 312.96875 242.765625 C 303.691406 246.226563 296.679688 241.371094 296.679688 231.585938 C 296.679688 226.0625 296.699219 220.535156 296.671875 215.011719 C 296.65625 211.167969 295.207031 207.921875 292.65625 205.050781 C 284.605469 195.972656 263.363281 195.289063 254.019531 207.214844 C 253.117188 208.371094 252.273438 209.964844 252.253906 211.367188 C 252.101563 223.671875 252.144531 235.980469 252.136719 248.289063 C 252.136719 249.097656 252.226563 249.90625 252.273438 250.71875 L 268.375 250.71875 L 268.375 242.988281 L 261.066406 242.988281 C 261.011719 241.972656 260.945313 241.3125 260.945313 240.648438 C 260.941406 231.355469 260.914063 222.0625 261.003906 212.769531 C 261.011719 212.007813 261.652344 211.058594 262.277344 210.523438 C 267.40625 206.121094 273.394531 205.523438 279.671875 207.070313 C 284.566406 208.277344 288.289063 211.519531 287.96875 217.917969 C 287.703125 223.179688 287.835938 228.464844 287.9375 233.738281 C 288.015625 237.71875 288.914063 241.523438 291.453125 244.734375 C 297.289063 252.113281 308.257813 254.085938 317.101563 249.367188 C 318.472656 248.636719 319.789063 247.8125 321.335938 246.90625 C 321.484375 248.40625 321.601563 249.601563 321.71875 250.75 L 330.097656 250.75 L 330.097656 199.441406 L 321.644531 199.441406 C 321.601563 200.363281 321.539063 201.023438 321.539063 201.679688 "/>
<path style=" stroke:none;fill-rule:nonzero;fill:rgb(36.099243%,14.099121%,50.999451%);fill-opacity:1;" d="M 238.371094 204.488281 C 231.945313 196.824219 217.742188 197.269531 211.121094 200.519531 C 210.613281 200.769531 210.007813 201.433594 209.984375 201.929688 C 209.871094 204.535156 209.933594 207.152344 209.933594 209.949219 C 211.902344 209.054688 213.4375 208.207031 215.074219 207.664063 C 216.800781 207.097656 218.601563 206.644531 220.402344 206.460938 C 226.75 205.8125 231.808594 208.34375 233.410156 214.660156 C 233.839844 216.335938 234 218.117188 234.011719 219.851563 C 234.066406 229.21875 234.039063 238.589844 234.039063 247.957031 L 234.039063 250.730469 L 242.648438 250.730469 C 242.734375 250.3125 242.824219 250.070313 242.824219 249.832031 C 242.835938 239.125 242.980469 228.414063 242.78125 217.710938 C 242.691406 212.957031 241.664063 208.417969 238.371094 204.488281 "/>
<path style=" stroke:none;fill-rule:nonzero;fill:rgb(36.099243%,14.099121%,50.999451%);fill-opacity:1;" d="M 68.21875 203.84375 C 61.761719 197.707031 49.40625 196.429688 41.289063 201.125 C 40.113281 201.808594 38.910156 202.4375 37.476563 203.21875 C 37.371094 201.71875 37.296875 200.660156 37.214844 199.535156 L 28.738281 199.535156 L 28.738281 250.761719 L 37.34375 250.761719 L 37.34375 247.902344 C 37.34375 237.773438 37.207031 227.644531 37.457031 217.523438 C 37.503906 215.488281 38.582031 213.121094 39.933594 211.558594 C 42.636719 208.433594 46.410156 207.058594 50.546875 206.582031 C 60.078125 205.488281 64.882813 210.738281 64.75 218.300781 C 64.574219 228.257813 64.707031 238.222656 64.714844 248.179688 C 64.714844 249.0625 64.785156 249.941406 64.824219 250.828125 L 73.3125 250.828125 C 73.386719 250.230469 73.464844 249.90625 73.464844 249.582031 C 73.46875 238.449219 73.578125 227.316406 73.421875 216.1875 C 73.355469 211.480469 71.769531 207.222656 68.21875 203.84375 "/>
<path style=" stroke:none;fill-rule:nonzero;fill:rgb(36.099243%,14.099121%,50.999451%);fill-opacity:1;" d="M 257.414063 144.421875 C 267.746094 152.246094 279.816406 154.367188 292.289063 154.828125 C 302.035156 155.191406 311.511719 153.230469 320.804688 150.386719 C 326.347656 148.6875 326.429688 148.664063 325.789063 143.023438 C 325.347656 139.105469 324.628906 135.21875 324.011719 131.15625 C 311.796875 135.90625 299.457031 137.207031 286.84375 135.539063 C 276.722656 134.199219 269.085938 129.117188 265.515625 119.277344 C 260.636719 105.828125 260.730469 92.148438 265.03125 78.566406 C 267.753906 69.980469 273.710938 64.394531 282.449219 62.160156 C 290.203125 60.179688 298.136719 60.046875 306.027344 61.21875 C 311.855469 62.082031 317.625 63.351563 323.78125 64.507813 C 324.609375 59.113281 325.492188 53.710938 326.191406 48.285156 C 326.261719 47.75 325.363281 46.753906 324.710938 46.507813 C 316.769531 43.527344 308.480469 42.132813 300.058594 41.65625 C 292.195313 41.210938 284.371094 41.800781 276.695313 43.636719 C 260.578125 47.492188 248.789063 56.585938 242.976563 72.433594 C 237.816406 86.503906 237.496094 101.007813 240.304688 115.570313 C 242.539063 127.15625 247.777344 137.125 257.414063 144.421875 "/>
<path style=" stroke:none;fill-rule:nonzero;fill:rgb(36.099243%,14.099121%,50.999451%);fill-opacity:1;" d="M 15.304688 184.042969 C 10.296875 183.171875 5.105469 183.347656 0 183.070313 L 0 189.097656 C 2.65625 189.097656 5.164063 188.96875 7.640625 189.15625 C 8.855469 189.25 10.03125 189.9375 11.222656 190.359375 C 10.742188 191.492188 10.492188 192.820313 9.738281 193.726563 C 7.964844 195.851563 6.835938 198 6.855469 200.929688 C 6.96875 216.570313 6.910156 232.214844 6.910156 247.859375 L 6.910156 250.800781 L 16.230469 250.800781 L 16.230469 247.730469 C 16.230469 233.761719 16.285156 219.792969 16.199219 205.820313 C 16.175781 201.675781 16.457031 197.894531 19.074219 194.246094 C 21.8125 190.433594 19.730469 184.808594 15.304688 184.042969 "/>
<path style=" stroke:none;fill-rule:nonzero;fill:rgb(36.099243%,14.099121%,50.999451%);fill-opacity:1;" d="M 192.011719 134.425781 C 182.273438 138.101563 172.269531 137.105469 162.472656 134.667969 C 155.800781 133.007813 149.335938 130.519531 142.476563 128.308594 C 141.628906 133.996094 140.714844 140.105469 139.8125 146.148438 C 140.300781 146.460938 140.566406 146.660156 140.859375 146.808594 C 141.605469 147.179688 142.347656 147.5625 143.121094 147.875 C 155.964844 153.074219 169.226563 155.5625 183.144531 154.53125 C 190.203125 154.007813 197.042969 152.761719 203.523438 149.921875 C 218.492188 143.363281 224.699219 132.253906 222.710938 116.605469 C 221.363281 106.019531 215.636719 98.300781 205.789063 94.445313 C 197.765625 91.308594 189.242188 89.46875 181.042969 86.746094 C 175.695313 84.976563 170.382813 82.960938 165.335938 80.472656 C 161.941406 78.800781 161.039063 75.089844 161.882813 71.351563 C 162.871094 66.953125 165.929688 64.507813 169.800781 63 C 179.746094 59.128906 189.976563 60.109375 200.15625 61.703125 C 205.480469 62.539063 210.71875 63.910156 216.203125 65.082031 C 216.90625 60.5 217.476563 55.882813 218.359375 51.324219 C 219.136719 47.300781 219.136719 47.476563 215.386719 46.683594 C 207.832031 45.085938 200.230469 43.605469 192.582031 42.574219 C 182.550781 41.222656 172.605469 42.15625 162.90625 45.136719 C 144.238281 50.871094 137.992188 67.046875 141.6875 82.515625 C 143.789063 91.332031 150.015625 97.0625 158.074219 100.269531 C 165.375 103.171875 173.121094 104.976563 180.695313 107.1875 C 187.183594 109.082031 193.789063 110.714844 198.984375 115.4375 C 203.160156 119.234375 203.800781 124.933594 199.964844 129.0625 C 197.832031 131.355469 194.9375 133.316406 192.011719 134.425781 "/>
<path style=" stroke:none;fill-rule:nonzero;fill:rgb(36.099243%,14.099121%,50.999451%);fill-opacity:1;" d="M 429.597656 183.292969 C 423.800781 183.417969 421.160156 186.296875 421.28125 192.539063 L 429.660156 192.539063 C 429.53125 192.335938 429.402344 192.132813 429.273438 191.933594 C 430.398438 191.035156 431.398438 189.730469 432.679688 189.34375 C 434.183594 188.894531 435.929688 189.238281 437.695313 189.238281 L 437.695313 183.285156 C 434.894531 183.285156 432.246094 183.238281 429.597656 183.292969 "/>
<path style=" stroke:none;fill-rule:nonzero;fill:rgb(36.099243%,14.099121%,50.999451%);fill-opacity:1;" d="M 289.023438 192.921875 L 330.148438 192.921875 L 330.148438 186.582031 L 289.023438 186.582031 Z M 289.023438 192.921875 "/>
<path style=" stroke:none;fill-rule:nonzero;fill:rgb(36.099243%,14.099121%,50.999451%);fill-opacity:1;" d="M 376.121094 214.273438 C 374.488281 212.910156 372.597656 211.851563 370.566406 210.480469 C 373.601563 207.75 376.492188 205.15625 379.589844 202.371094 C 377.433594 201.183594 375.519531 200.015625 373.496094 199.085938 C 372.933594 198.828125 371.847656 199.015625 371.351563 199.421875 C 365.761719 204.039063 360.242188 208.738281 354.484375 213.597656 C 355.765625 213.859375 356.753906 213.953125 357.664063 214.269531 C 361.105469 215.476563 364.722656 216.378906 367.890625 218.097656 C 373.1875 220.964844 375.320313 225.890625 374.746094 231.792969 C 374.199219 237.398438 370.707031 241.125 365.523438 242.449219 C 361.503906 243.480469 357.144531 243.296875 352.929688 243.410156 C 350.3125 243.484375 349.371094 242.117188 349.414063 239.285156 C 349.605469 226.984375 349.496094 214.679688 349.496094 202.378906 L 349.496094 199.445313 L 340.863281 199.445313 C 340.78125 200.039063 340.699219 200.363281 340.699219 200.683594 C 340.691406 216.082031 340.664063 231.484375 340.761719 246.882813 C 340.765625 247.640625 341.679688 248.820313 342.421875 249.078125 C 350.777344 252.011719 359.347656 252.714844 367.910156 250.320313 C 375.445313 248.210938 381.078125 243.660156 382.914063 235.695313 C 384.839844 227.332031 382.910156 219.949219 376.121094 214.273438 "/>
<path style=" stroke:none;fill-rule:nonzero;fill:rgb(36.099243%,14.099121%,50.999451%);fill-opacity:1;" d="M 435.34375 199.519531 L 426.53125 199.519531 L 426.53125 202.640625 C 426.53125 214.105469 426.46875 225.578125 426.589844 237.042969 C 426.609375 239.175781 425.863281 240.410156 424 241.023438 C 421.324219 241.90625 418.652344 242.996094 415.890625 243.390625 C 410.839844 244.117188 405.847656 243.527344 401.429688 240.710938 C 397.09375 237.953125 396.355469 233.027344 399.558594 229.050781 C 401.519531 226.613281 404.148438 225.195313 407.238281 224.796875 C 409.851563 224.460938 412.492188 224.328125 415.121094 224.109375 L 415.121094 216.476563 C 412.488281 216.476563 410.054688 216.640625 407.652344 216.429688 C 405.519531 216.242188 403.359375 215.832031 401.324219 215.171875 C 399.496094 214.582031 398.59375 213.015625 398.730469 211.03125 C 398.871094 209.023438 400.097656 207.621094 401.941406 207.34375 C 404.539063 206.953125 407.214844 206.925781 409.851563 206.984375 C 411.605469 207.023438 413.351563 207.484375 415.328125 207.792969 C 415.328125 205.367188 415.433594 203.363281 415.269531 201.375 C 415.214844 200.753906 414.546875 199.832031 413.972656 199.65625 C 406.964844 197.523438 400.226563 198.105469 394.207031 202.492188 C 389.246094 206.113281 387.71875 213.984375 393.523438 218.734375 C 394.421875 219.472656 395.335938 220.1875 396.507813 221.125 C 395.789063 221.691406 395.25 222.074219 394.753906 222.507813 C 391.601563 225.273438 389.132813 228.410156 388.828125 232.84375 C 388.308594 240.527344 392.117188 245.574219 398.644531 248.824219 C 404.570313 251.773438 410.964844 252 417.410156 251.421875 C 423.648438 250.863281 429.335938 248.871094 433.773438 244.257813 C 434.632813 243.367188 435.265625 241.84375 435.277344 240.605469 C 435.382813 227.796875 435.34375 214.988281 435.34375 202.183594 "/>
<path style=" stroke:none;fill-rule:nonzero;fill:rgb(36.099243%,14.099121%,50.999451%);fill-opacity:1;" d="M 419.84375 124.128906 C 418.488281 130.816406 414.265625 134.757813 407.03125 134.953125 C 394.816406 135.285156 382.585938 135.046875 370.363281 135.039063 C 370.214844 135.039063 370.0625 134.929688 369.617188 134.757813 L 369.617188 104.863281 C 370.523438 104.816406 371.328125 104.730469 372.132813 104.730469 C 379.921875 104.71875 387.710938 104.609375 395.492188 104.765625 C 400.148438 104.855469 404.859375 104.988281 409.429688 105.785156 C 416.335938 106.988281 420.039063 111.859375 420.082031 118.878906 C 420.09375 120.632813 420.191406 122.433594 419.84375 124.128906 M 369.636719 61.453125 C 370.65625 61.453125 371.546875 61.453125 372.4375 61.457031 C 381.394531 61.46875 390.355469 61.359375 399.308594 61.566406 C 402.339844 61.640625 405.449219 62.214844 408.355469 63.113281 C 413.195313 64.609375 416.023438 68.847656 416.058594 73.953125 C 416.070313 75.953125 416.199219 78.023438 415.761719 79.945313 C 414.515625 85.429688 410.121094 89.054688 403.578125 89.226563 C 392.375 89.519531 381.160156 89.304688 369.636719 89.304688 Z M 423.828125 96.878906 C 422.757813 96.53125 421.703125 96.125 420.640625 95.742188 C 420.679688 95.492188 420.714844 95.242188 420.753906 94.992188 C 421.402344 94.707031 422.035156 94.375 422.703125 94.144531 C 428.707031 92.050781 432.777344 87.96875 434.875 82.019531 C 436.554688 77.257813 437.113281 72.390625 436.488281 67.289063 C 435.535156 59.492188 431.832031 53.65625 425.152344 49.671875 C 417.050781 44.832031 407.972656 43.867188 398.875 43.714844 C 382.96875 43.449219 367.054688 43.640625 351.144531 43.640625 L 348.429688 43.640625 L 348.429688 152.875 C 349.296875 152.910156 349.960938 152.964844 350.625 152.964844 C 367.960938 152.949219 385.296875 153.140625 402.625 152.792969 C 408.5625 152.671875 414.652344 151.839844 420.355469 150.214844 C 439.15625 144.839844 444.335938 130.554688 441.15625 114.648438 C 439.289063 105.304688 432.746094 99.746094 423.828125 96.878906 "/>
<path style=" stroke:none;fill-rule:evenodd;fill:rgb(36.099243%,14.099121%,50.999451%);fill-opacity:1;" d="M 216.203125 65.085938 C 210.722656 63.910156 205.480469 62.539063 200.15625 61.703125 C 189.976563 60.109375 179.746094 59.128906 169.800781 63 C 165.929688 64.507813 162.871094 66.953125 161.878906 71.351563 C 161.039063 75.089844 161.941406 78.800781 165.335938 80.476563 C 170.382813 82.960938 175.695313 84.976563 181.042969 86.75 C 189.242188 89.46875 197.765625 91.308594 205.789063 94.445313 C 215.636719 98.300781 221.367188 106.019531 222.710938 116.605469 C 224.699219 132.253906 218.492188 143.363281 203.519531 149.921875 C 197.042969 152.761719 190.203125 154.007813 183.144531 154.53125 C 169.226563 155.566406 155.964844 153.074219 143.121094 147.875 C 142.347656 147.5625 141.605469 147.179688 140.859375 146.808594 C 140.5625 146.664063 140.296875 146.460938 139.8125 146.148438 C 140.714844 140.105469 141.628906 134 142.476563 128.308594 C 149.335938 130.523438 155.800781 133.007813 162.472656 134.671875 C 172.269531 137.105469 182.273438 138.105469 192.011719 134.425781 C 194.9375 133.316406 197.832031 131.355469 199.964844 129.0625 C 203.800781 124.933594 203.160156 119.234375 198.984375 115.4375 C 193.789063 110.714844 187.183594 109.082031 180.695313 107.1875 C 173.121094 104.976563 165.375 103.171875 158.074219 100.269531 C 150.015625 97.0625 143.789063 91.332031 141.6875 82.515625 C 137.992188 67.050781 144.238281 50.871094 162.910156 45.136719 C 172.605469 42.160156 182.550781 41.222656 192.582031 42.574219 C 200.230469 43.605469 207.828125 45.085938 215.386719 46.683594 C 219.136719 47.476563 219.136719 47.300781 218.355469 51.328125 C 217.476563 55.882813 216.90625 60.503906 216.203125 65.085938 "/>
<path style=" stroke:none;fill-rule:evenodd;fill:rgb(36.099243%,14.099121%,50.999451%);fill-opacity:1;" d="M 323.78125 64.507813 C 317.625 63.351563 311.855469 62.082031 306.027344 61.21875 C 298.136719 60.046875 290.203125 60.179688 282.449219 62.160156 C 273.710938 64.394531 267.753906 69.980469 265.03125 78.566406 C 260.730469 92.148438 260.636719 105.828125 265.515625 119.277344 C 269.085938 129.117188 276.722656 134.199219 286.84375 135.539063 C 299.457031 137.207031 311.800781 135.90625 324.011719 131.15625 C 324.628906 135.21875 325.347656 139.105469 325.792969 143.023438 C 326.429688 148.664063 326.347656 148.6875 320.804688 150.386719 C 311.511719 153.230469 302.035156 155.191406 292.289063 154.828125 C 279.816406 154.367188 267.75 152.246094 257.414063 144.421875 C 247.777344 137.125 242.539063 127.15625 240.304688 115.570313 C 237.5 101.007813 237.816406 86.503906 242.976563 72.433594 C 248.789063 56.585938 260.578125 47.492188 276.695313 43.636719 C 284.371094 41.800781 292.195313 41.210938 300.058594 41.65625 C 308.480469 42.132813 316.769531 43.527344 324.710938 46.507813 C 325.363281 46.753906 326.261719 47.75 326.195313 48.285156 C 325.492188 53.710938 324.609375 59.113281 323.78125 64.507813 "/>
<path style=" stroke:none;fill-rule:evenodd;fill:rgb(36.099243%,14.099121%,50.999451%);fill-opacity:1;" d="M 321.644531 199.441406 L 330.101563 199.441406 L 330.101563 250.753906 L 321.71875 250.753906 C 321.605469 249.601563 321.484375 248.40625 321.335938 246.910156 C 319.789063 247.808594 318.472656 248.636719 317.105469 249.367188 C 308.257813 254.085938 297.289063 252.113281 291.453125 244.734375 C 288.914063 241.523438 288.015625 237.71875 287.9375 233.738281 C 287.835938 228.464844 287.703125 223.179688 287.96875 217.917969 C 288.289063 211.519531 284.566406 208.277344 279.671875 207.070313 C 273.394531 205.523438 267.40625 206.121094 262.277344 210.523438 C 261.652344 211.058594 261.011719 212.007813 261.003906 212.769531 C 260.914063 222.0625 260.941406 231.355469 260.945313 240.648438 C 260.949219 241.3125 261.011719 241.972656 261.0625 242.988281 L 268.375 242.988281 L 268.375 250.71875 L 252.273438 250.71875 C 252.226563 249.90625 252.136719 249.097656 252.136719 248.289063 C 252.144531 235.980469 252.105469 223.671875 252.253906 211.367188 C 252.269531 209.964844 253.117188 208.371094 254.019531 207.214844 C 263.367188 195.289063 284.605469 195.972656 292.65625 205.046875 C 295.207031 207.921875 296.65625 211.167969 296.671875 215.007813 C 296.699219 220.535156 296.679688 226.0625 296.679688 231.585938 C 296.683594 241.375 303.6875 246.226563 312.964844 242.765625 C 319.039063 240.503906 321.785156 236.890625 321.605469 230.558594 C 321.328125 220.941406 321.53125 211.304688 321.539063 201.679688 C 321.539063 201.023438 321.601563 200.363281 321.644531 199.441406 "/>
<path style=" stroke:none;fill-rule:evenodd;fill:rgb(36.099243%,14.099121%,50.999451%);fill-opacity:1;" d="M 136.585938 199.445313 L 145.183594 199.445313 C 148.132813 210.253906 151.105469 221.128906 154.296875 232.8125 C 154.988281 231.382813 155.425781 230.664063 155.695313 229.886719 C 159.035156 220.371094 162.394531 210.863281 165.617188 201.304688 C 166.148438 199.722656 166.890625 199.308594 168.449219 199.3125 C 173.894531 199.332031 173.875 199.285156 175.714844 204.523438 C 178.78125 213.25 181.871094 221.964844 184.960938 230.683594 C 185.117188 231.128906 185.347656 231.550781 186.1875 232.070313 C 189.144531 221.253906 192.097656 210.433594 195.082031 199.492188 L 203.886719 199.492188 C 202.757813 203.78125 201.710938 207.875 200.605469 211.949219 C 197.277344 224.242188 193.902344 236.519531 190.613281 248.824219 C 190.207031 250.339844 189.617188 250.984375 187.929688 250.964844 C 183.105469 250.90625 183.105469 250.988281 181.480469 246.339844 C 178.097656 236.664063 174.714844 226.984375 171.324219 217.308594 C 171.035156 216.492188 170.671875 215.703125 169.703125 214.910156 C 168.5 218.230469 167.269531 221.542969 166.105469 224.878906 C 163.335938 232.824219 160.535156 240.761719 157.894531 248.753906 C 157.308594 250.527344 156.429688 251 154.675781 250.957031 C 150.363281 250.855469 150.3125 250.953125 149.148438 246.703125 C 145 231.53125 140.882813 216.347656 136.769531 201.167969 C 136.644531 200.699219 136.660156 200.195313 136.585938 199.445313 "/>
<path style=" stroke:none;fill-rule:evenodd;fill:rgb(36.099243%,14.099121%,50.999451%);fill-opacity:1;" d="M 89.515625 221.117188 C 88.917969 220.640625 88.558594 220.3125 88.164063 220.042969 C 80.960938 215.082031 80.984375 206.308594 88.371094 201.691406 C 94.3125 197.972656 100.757813 197.601563 107.347656 199.753906 C 107.910156 199.933594 108.546875 200.835938 108.59375 201.449219 C 108.753906 203.441406 108.652344 205.453125 108.652344 207.867188 C 106.597656 207.539063 104.695313 207.035156 102.777344 206.96875 C 100.222656 206.882813 97.625 206.929688 95.105469 207.300781 C 93.105469 207.59375 91.847656 209.199219 91.773438 211.191406 C 91.703125 213.175781 92.804688 214.882813 94.773438 215.359375 C 97.253906 215.964844 99.832031 216.230469 102.382813 216.445313 C 104.359375 216.613281 106.359375 216.480469 108.5 216.480469 L 108.5 224.085938 C 105.8125 224.308594 103.101563 224.472656 100.40625 224.777344 C 97.191406 225.140625 94.554688 226.664063 92.511719 229.164063 C 89.511719 232.828125 90.128906 237.554688 93.957031 240.363281 C 100.066406 244.847656 111.605469 244.628906 118.433594 240.160156 C 119.101563 239.71875 119.441406 238.332031 119.445313 237.382813 C 119.515625 225.746094 119.488281 214.109375 119.492188 202.472656 L 119.492188 199.546875 L 128.179688 199.546875 C 128.21875 200.429688 128.289063 201.242188 128.289063 202.058594 C 128.296875 214.949219 128.34375 227.84375 128.222656 240.734375 C 128.210938 242.042969 127.507813 243.683594 126.566406 244.582031 C 121.980469 248.960938 116.328125 250.960938 110.054688 251.457031 C 104.617188 251.890625 99.242188 251.683594 94.074219 249.835938 C 88.554688 247.867188 84.238281 244.484375 82.386719 238.667969 C 80.570313 232.960938 82.5625 226.722656 87.289063 222.917969 C 87.984375 222.359375 88.675781 221.796875 89.515625 221.117188 "/>
<path style=" stroke:none;fill-rule:evenodd;fill:rgb(36.099243%,14.099121%,50.999451%);fill-opacity:1;" d="M 396.507813 221.128906 C 395.335938 220.1875 394.421875 219.472656 393.523438 218.734375 C 387.71875 213.980469 389.246094 206.113281 394.207031 202.492188 C 400.226563 198.105469 406.964844 197.523438 413.972656 199.65625 C 414.546875 199.832031 415.214844 200.753906 415.269531 201.378906 C 415.433594 203.359375 415.328125 205.367188 415.328125 207.792969 C 413.351563 207.484375 411.605469 207.023438 409.851563 206.984375 C 407.214844 206.925781 404.539063 206.953125 401.941406 207.34375 C 400.097656 207.621094 398.871094 209.023438 398.730469 211.03125 C 398.59375 213.015625 399.496094 214.582031 401.324219 215.171875 C 403.359375 215.832031 405.519531 216.242188 407.652344 216.429688 C 410.054688 216.640625 412.488281 216.476563 415.121094 216.476563 L 415.121094 224.105469 C 412.492188 224.332031 409.851563 224.464844 407.238281 224.796875 C 404.148438 225.195313 401.519531 226.609375 399.558594 229.050781 C 396.355469 233.027344 397.09375 237.953125 401.429688 240.714844 C 405.847656 243.527344 410.839844 244.117188 415.890625 243.390625 C 418.652344 242.996094 421.324219 241.902344 424 241.023438 C 425.863281 240.410156 426.609375 239.175781 426.589844 237.042969 C 426.46875 225.574219 426.53125 214.105469 426.53125 202.640625 L 426.53125 199.519531 L 435.34375 199.519531 L 435.34375 202.183594 C 435.34375 214.988281 435.382813 227.796875 435.277344 240.605469 C 435.265625 241.84375 434.632813 243.363281 433.773438 244.261719 C 429.335938 248.871094 423.648438 250.863281 417.410156 251.421875 C 410.964844 252 404.570313 251.773438 398.644531 248.820313 C 392.117188 245.570313 388.308594 240.523438 388.828125 232.84375 C 389.132813 228.40625 391.601563 225.273438 394.753906 222.507813 C 395.25 222.074219 395.789063 221.691406 396.507813 221.128906 "/>
<path style=" stroke:none;fill-rule:evenodd;fill:rgb(36.099243%,14.099121%,50.999451%);fill-opacity:1;" d="M 340.863281 199.445313 L 349.496094 199.445313 L 349.496094 202.378906 C 349.496094 214.679688 349.605469 226.984375 349.414063 239.285156 C 349.371094 242.117188 350.316406 243.484375 352.929688 243.410156 C 357.148438 243.296875 361.507813 243.480469 365.527344 242.449219 C 370.707031 241.125 374.199219 237.398438 374.746094 231.792969 C 375.320313 225.890625 373.1875 220.964844 367.890625 218.097656 C 364.71875 216.378906 361.105469 215.476563 357.664063 214.269531 C 356.757813 213.953125 355.765625 213.859375 354.484375 213.597656 C 360.242188 208.738281 365.761719 204.039063 371.351563 199.421875 C 371.847656 199.015625 372.933594 198.828125 373.496094 199.085938 C 375.519531 200.015625 377.429688 201.183594 379.589844 202.371094 C 376.492188 205.15625 373.601563 207.75 370.566406 210.480469 C 372.59375 211.851563 374.488281 212.910156 376.121094 214.273438 C 382.910156 219.949219 384.839844 227.332031 382.914063 235.695313 C 381.082031 243.660156 375.445313 248.210938 367.910156 250.320313 C 359.347656 252.714844 350.777344 252.011719 342.421875 249.078125 C 341.679688 248.820313 340.765625 247.640625 340.761719 246.882813 C 340.664063 231.484375 340.691406 216.082031 340.699219 200.683594 C 340.699219 200.363281 340.78125 200.039063 340.863281 199.445313 "/>
<path style=" stroke:none;fill-rule:evenodd;fill:rgb(36.099243%,14.099121%,50.999451%);fill-opacity:1;" d="M 73.3125 250.828125 L 64.824219 250.828125 C 64.785156 249.941406 64.714844 249.0625 64.714844 248.179688 C 64.707031 238.222656 64.574219 228.257813 64.75 218.300781 C 64.882813 210.734375 60.078125 205.488281 50.546875 206.582031 C 46.414063 207.058594 42.636719 208.429688 39.9375 211.554688 C 38.582031 213.121094 37.503906 215.488281 37.457031 217.519531 C 37.207031 227.640625 37.34375 237.773438 37.34375 247.898438 L 37.34375 250.761719 L 28.738281 250.761719 L 28.738281 199.535156 L 37.214844 199.535156 C 37.296875 200.660156 37.371094 201.71875 37.476563 203.21875 C 38.910156 202.433594 40.113281 201.804688 41.289063 201.128906 C 49.40625 196.429688 61.761719 197.707031 68.21875 203.84375 C 71.769531 207.222656 73.355469 211.480469 73.421875 216.1875 C 73.578125 227.316406 73.472656 238.453125 73.464844 249.582031 C 73.464844 249.90625 73.386719 250.230469 73.3125 250.828125 "/>
<path style=" stroke:none;fill-rule:evenodd;fill:rgb(36.099243%,14.099121%,50.999451%);fill-opacity:1;" d="M 16.230469 250.800781 L 6.910156 250.800781 L 6.910156 247.859375 C 6.910156 232.214844 6.96875 216.570313 6.855469 200.929688 C 6.835938 198 7.964844 195.851563 9.738281 193.726563 C 10.492188 192.820313 10.742188 191.492188 11.21875 190.359375 C 10.027344 189.941406 8.855469 189.25 7.640625 189.15625 C 5.164063 188.96875 2.660156 189.097656 0 189.097656 L 0 183.070313 C 5.105469 183.347656 10.296875 183.171875 15.304688 184.039063 C 19.730469 184.808594 21.8125 190.433594 19.074219 194.246094 C 16.457031 197.894531 16.171875 201.675781 16.199219 205.820313 C 16.285156 219.789063 16.230469 233.761719 16.230469 247.734375 "/>
<path style=" stroke:none;fill-rule:evenodd;fill:rgb(36.099243%,14.099121%,50.999451%);fill-opacity:1;" d="M 234.039063 250.730469 L 234.039063 247.957031 C 234.039063 238.585938 234.066406 229.21875 234.011719 219.851563 C 234 218.117188 233.839844 216.335938 233.410156 214.660156 C 231.808594 208.34375 226.75 205.8125 220.402344 206.460938 C 218.601563 206.644531 216.800781 207.097656 215.074219 207.664063 C 213.4375 208.207031 211.902344 209.054688 209.933594 209.949219 C 209.933594 207.152344 209.871094 204.535156 209.984375 201.929688 C 210.007813 201.433594 210.613281 200.769531 211.121094 200.523438 C 217.742188 197.269531 231.945313 196.824219 238.371094 204.488281 C 241.664063 208.417969 242.691406 212.957031 242.78125 217.710938 C 242.980469 228.414063 242.835938 239.125 242.824219 249.832031 C 242.824219 250.070313 242.734375 250.3125 242.648438 250.730469 "/>
<path style=" stroke:none;fill-rule:evenodd;fill:rgb(36.099243%,14.099121%,50.999451%);fill-opacity:1;" d="M 289.023438 192.921875 L 330.148438 192.921875 L 330.148438 186.582031 L 289.023438 186.582031 Z M 289.023438 192.921875 "/>
<path style=" stroke:none;fill-rule:evenodd;fill:rgb(36.099243%,14.099121%,50.999451%);fill-opacity:1;" d="M 421.28125 192.539063 C 421.160156 186.296875 423.800781 183.417969 429.597656 183.292969 C 432.246094 183.238281 434.894531 183.285156 437.695313 183.285156 L 437.695313 189.238281 C 435.929688 189.238281 434.183594 188.890625 432.679688 189.34375 C 431.398438 189.730469 430.398438 191.035156 429.273438 191.933594 C 429.402344 192.132813 429.53125 192.335938 429.660156 192.539063 "/>
<path style=" stroke:none;fill-rule:nonzero;fill:rgb(96.899414%,65.499878%,13.699341%);fill-opacity:1;" d="M 517.15625 225.679688 C 535.035156 233.992188 552.847656 242.453125 570.707031 250.820313 C 571.644531 251.261719 572.796875 251.417969 573.847656 251.421875 C 587.414063 251.460938 600.984375 251.398438 614.550781 251.496094 C 616.820313 251.515625 617.363281 250.769531 617.347656 248.613281 C 617.257813 236.722656 617.308594 224.828125 617.296875 212.933594 C 617.296875 212.300781 617.1875 211.667969 617.097656 210.691406 C 616.035156 211.179688 615.234375 211.570313 614.417969 211.917969 C 601.914063 217.273438 589.234375 221.789063 575.261719 220 C 569.832031 219.308594 564.925781 217.382813 560.914063 213.53125 C 553.914063 206.804688 551.761719 198.046875 551.597656 188.898438 C 551.464844 181.265625 552.164063 173.570313 553.078125 165.976563 C 554.15625 157.015625 556.429688 148.292969 560.25 140.042969 C 570.652344 117.566406 585.578125 98.355469 603.421875 81.417969 C 609.316406 75.820313 616.289063 71.355469 622.765625 66.363281 C 624.363281 65.128906 625.902344 65.105469 627.546875 66.324219 C 632.710938 70.152344 638.1875 73.609375 643.03125 77.800781 C 655.617188 88.695313 666.320313 101.335938 675.769531 115.003906 C 685.226563 128.683594 693.234375 143.089844 696.28125 159.742188 C 698.503906 171.910156 700.320313 184.113281 697.976563 196.472656 C 694.824219 213.09375 685.066406 220.070313 670.019531 220.484375 C 662.628906 220.683594 655.429688 219.074219 648.453125 216.691406 C 643.429688 214.976563 638.507813 212.949219 633.253906 210.957031 C 633.21875 211.675781 633.175781 212.167969 633.175781 212.660156 C 633.171875 224.554688 633.257813 236.449219 633.105469 248.339844 C 633.070313 251.011719 633.96875 251.519531 636.40625 251.5 C 649.554688 251.390625 662.703125 251.488281 675.855469 251.398438 C 677.539063 251.386719 679.355469 250.960938 680.886719 250.246094 C 698.148438 242.195313 715.367188 234.046875 732.601563 225.929688 C 736.101563 224.28125 736.089844 224.292969 735.140625 220.578125 C 725.527344 182.972656 715.933594 145.363281 706.273438 107.769531 C 705.941406 106.476563 705.230469 105.09375 704.285156 104.175781 C 700.378906 100.402344 696.316406 96.78125 692.296875 93.121094 C 684.6875 86.195313 677.078125 79.269531 669.453125 72.363281 C 659.285156 63.160156 649.097656 53.976563 638.929688 44.773438 C 634.894531 41.128906 630.859375 37.480469 626.875 33.785156 C 625.550781 32.554688 624.578125 32.617188 623.3125 33.953125 C 621.648438 35.710938 619.746094 37.238281 617.953125 38.871094 C 609.980469 46.140625 602.027344 53.429688 594.039063 60.683594 C 585.554688 68.386719 577.050781 76.066406 568.542969 83.738281 C 562.332031 89.339844 556.03125 94.84375 549.90625 100.53125 C 547.453125 102.804688 544.683594 104.742188 543.746094 108.46875 C 534.273438 146.023438 524.679688 183.546875 515.027344 221.054688 C 514.40625 223.472656 514.855469 224.605469 517.15625 225.679688 "/>
<g clip-path="url(#clip1)" clip-rule="nonzero">
<path style=" stroke:none;fill-rule:nonzero;fill:rgb(36.099243%,14.099121%,50.999451%);fill-opacity:1;" d="M 732.601563 225.929688 C 715.367188 234.046875 698.148438 242.195313 680.882813 250.246094 C 679.355469 250.960938 677.539063 251.386719 675.855469 251.398438 C 662.703125 251.488281 649.554688 251.390625 636.40625 251.5 C 633.96875 251.519531 633.070313 251.011719 633.105469 248.339844 C 633.257813 236.449219 633.171875 224.554688 633.175781 212.660156 C 633.175781 212.167969 633.21875 211.675781 633.253906 210.957031 C 638.507813 212.949219 643.429688 214.976563 648.453125 216.691406 C 655.429688 219.074219 662.628906 220.683594 670.019531 220.484375 C 685.066406 220.070313 694.824219 213.09375 697.976563 196.472656 C 700.320313 184.113281 698.503906 171.910156 696.28125 159.742188 C 693.234375 143.089844 685.226563 128.683594 675.769531 115.003906 C 666.320313 101.335938 655.617188 88.695313 643.03125 77.800781 C 638.1875 73.609375 632.710938 70.152344 627.546875 66.324219 C 625.902344 65.105469 624.363281 65.128906 622.765625 66.363281 C 616.289063 71.355469 609.316406 75.820313 603.421875 81.417969 C 585.578125 98.355469 570.652344 117.566406 560.25 140.042969 C 556.429688 148.292969 554.15625 157.015625 553.078125 165.976563 C 552.164063 173.570313 551.460938 181.265625 551.597656 188.898438 C 551.761719 198.046875 553.914063 206.804688 560.914063 213.53125 C 564.921875 217.382813 569.832031 219.308594 575.261719 220 C 589.234375 221.789063 601.914063 217.273438 614.414063 211.917969 C 615.234375 211.570313 616.035156 211.179688 617.097656 210.691406 C 617.1875 211.667969 617.296875 212.300781 617.296875 212.933594 C 617.308594 224.828125 617.257813 236.722656 617.347656 248.613281 C 617.363281 250.769531 616.820313 251.515625 614.550781 251.496094 C 600.984375 251.398438 587.414063 251.460938 573.847656 251.421875 C 572.792969 251.417969 571.644531 251.261719 570.703125 250.820313 C 552.847656 242.453125 535.035156 233.992188 517.15625 225.679688 C 514.855469 224.605469 514.40625 223.472656 515.027344 221.054688 C 524.679688 183.546875 534.273438 146.023438 543.746094 108.46875 C 544.683594 104.742188 547.453125 102.804688 549.90625 100.53125 C 556.03125 94.84375 562.332031 89.339844 568.539063 83.738281 C 577.050781 76.066406 585.554688 68.386719 594.039063 60.683594 C 602.027344 53.429688 609.980469 46.140625 617.953125 38.871094 C 619.746094 37.238281 621.648438 35.710938 623.3125 33.953125 C 624.578125 32.617188 625.550781 32.554688 626.875 33.785156 C 630.859375 37.480469 634.894531 41.128906 638.925781 44.773438 C 649.097656 53.976563 659.285156 63.160156 669.453125 72.363281 C 677.078125 79.269531 684.6875 86.195313 692.296875 93.121094 C 696.316406 96.78125 700.375 100.402344 704.285156 104.175781 C 705.230469 105.09375 705.941406 106.476563 706.273438 107.769531 C 715.933594 145.363281 725.527344 182.972656 735.140625 220.578125 C 736.089844 224.292969 736.101563 224.28125 732.601563 225.929688 M 482 283.46875 L 768.414063 283.46875 L 768.414063 -0.00390625 L 482 -0.00390625 Z M 482 283.46875 "/>
</g>
</g>
</svg>
